# xmcd CD database file
#
# Track frame offsets:
#	150
#	18760
#	43210
#
# Disc length: 822 seconds
#
# Revision: 0
# Processed by: cddbd v1.5PL3 Copyright (c) Steve Scherf et al.
# Submitted via: CDex 1.51
#
DISCID=1b033403
DTITLE=片瀬那奈 - ミ・アモーレ (Meu amor e'...) (Single)
DYEAR=2004
DGENRE=Vocal
TTITLE0=ミ・アモーレ (Meu amor e'...)
TTITLE1=ミ・アモーレ (Meu amor e'...) エクステンデッド・ダンス・ミックス
TTITLE2=ミ・アモーレ (Meu amor e'...) インストゥルメンタル
EXTD=YEAR: 2004
EXTT0=
EXTT1=
EXTT2=
PLAYORDER=
